<svg width="23" height="23" viewBox="0 0 23 23" fill="none" xmlns="http://www.w3.org/2000/svg">
<rect width="22.4561" height="22.4561" rx="5.61404" transform="matrix(-1 0 0 1 22.4561 0)" fill="#EBEBEB"/>
<path d="M16.2351 11.9632C16.1274 11.9361 16.0197 11.9632 15.9255 12.0307C15.5755 12.3281 15.1717 12.5714 14.7275 12.7336C14.3103 12.8958 13.8526 12.9769 13.3681 12.9769C12.2778 12.9769 11.2817 12.5309 10.5683 11.8145C9.85494 11.0981 9.41075 10.0979 9.41075 9.00301C9.41075 8.54344 9.49151 8.09739 9.62612 7.69189C9.77418 7.25936 9.98954 6.86738 10.2722 6.52946C10.3933 6.38078 10.3664 6.16451 10.2184 6.04286C10.1241 5.97528 10.0165 5.94825 9.90878 5.97528C8.76466 6.28616 7.7686 6.97551 7.05521 7.89464C6.36874 8.80026 5.96493 9.92214 5.96493 11.1386C5.96493 12.612 6.55718 13.9501 7.52632 14.9233C8.49546 15.8965 9.81456 16.4912 11.2952 16.4912C12.5335 16.4912 13.6776 16.0587 14.5929 15.3423C15.5217 14.6124 16.1947 13.5716 16.4774 12.3822C16.5312 12.1929 16.4235 12.0037 16.2351 11.9632Z" fill="black"/>
<path fill-rule="evenodd" clip-rule="evenodd" d="M12.8365 7.42691C12.6427 7.42691 12.4567 7.34989 12.3197 7.2128C12.1826 7.07572 12.1056 6.88979 12.1056 6.69591C12.1056 6.50204 12.1826 6.31611 12.3197 6.17902C12.4567 6.04194 12.6427 5.96492 12.8365 5.96492H15.7605C15.9051 5.96495 16.0464 6.00784 16.1666 6.08816C16.2867 6.16849 16.3804 6.28264 16.4357 6.4162C16.491 6.54975 16.5055 6.6967 16.4773 6.83848C16.4491 6.98026 16.3795 7.1105 16.2773 7.21273L14.6012 8.8889H15.7605C15.9544 8.8889 16.1403 8.96591 16.2774 9.103C16.4145 9.24009 16.4915 9.42602 16.4915 9.61989C16.4915 9.81376 16.4145 9.99969 16.2774 10.1368C16.1403 10.2739 15.9544 10.3509 15.7605 10.3509H12.8365C12.692 10.3509 12.5507 10.308 12.4305 10.2276C12.3103 10.1473 12.2167 10.0332 12.1613 9.89961C12.106 9.76606 12.0916 9.6191 12.1197 9.47732C12.1479 9.33554 12.2175 9.20531 12.3197 9.10308L13.9959 7.42691H12.8365Z" fill="black"/>
</svg>
