<svg width="23" height="23" viewBox="0 0 23 23" fill="none" xmlns="http://www.w3.org/2000/svg">
<rect width="22.4561" height="22.4561" rx="5.61404" fill="#EBEBEB"/>
<path d="M12.1055 7.71931C12.1055 7.5965 12.1055 7.53598 12.0985 7.4851C12.0761 7.32432 12.0019 7.17521 11.8872 7.06043C11.7724 6.94565 11.6233 6.87146 11.4625 6.84913C11.4125 6.84212 11.3511 6.84212 11.2283 6.84212C11.1055 6.84212 11.0449 6.84212 10.9941 6.84913C10.8333 6.87146 10.6842 6.94565 10.5694 7.06043C10.4546 7.17521 10.3804 7.32432 10.3581 7.4851C10.3511 7.5351 10.3511 7.5965 10.3511 7.71931C10.3511 7.84212 10.3511 7.90264 10.3581 7.95352C10.3804 8.1143 10.4546 8.26341 10.5694 8.37819C10.6842 8.49297 10.8333 8.56716 10.9941 8.58949C11.0441 8.5965 11.1055 8.5965 11.2283 8.5965C11.3511 8.5965 11.4116 8.5965 11.4625 8.58949C11.6233 8.56716 11.7724 8.49297 11.8872 8.37819C12.0019 8.26341 12.0761 8.1143 12.0985 7.95352C12.1055 7.90352 12.1055 7.84212 12.1055 7.71931ZM12.1055 11.2281C12.1055 11.1053 12.1055 11.0447 12.0985 10.9939C12.0761 10.8331 12.0019 10.684 11.8872 10.5692C11.7724 10.4544 11.6233 10.3802 11.4625 10.3579C11.4125 10.3509 11.3511 10.3509 11.2283 10.3509C11.1055 10.3509 11.0449 10.3509 10.9941 10.3579C10.8333 10.3802 10.6842 10.4544 10.5694 10.5692C10.4546 10.684 10.3804 10.8331 10.3581 10.9939C10.3511 11.0439 10.3511 11.1053 10.3511 11.2281C10.3511 11.3509 10.3511 11.4114 10.3581 11.4623C10.3804 11.6231 10.4546 11.7722 10.5694 11.887C10.6842 12.0017 10.8333 12.0759 10.9941 12.0983C11.0441 12.1053 11.1055 12.1053 11.2283 12.1053C11.3511 12.1053 11.4116 12.1053 11.4625 12.0983C11.6233 12.0759 11.7724 12.0017 11.8872 11.887C12.0019 11.7722 12.0761 11.6231 12.0985 11.4623C12.1055 11.4123 12.1055 11.3509 12.1055 11.2281ZM12.1055 14.7369C12.1055 14.6149 12.1055 14.5535 12.0985 14.5026C12.076 14.3421 12.0019 14.1933 11.8873 14.0787C11.7727 13.9642 11.6239 13.89 11.4634 13.8676C11.4116 13.8605 11.3511 13.8605 11.2292 13.8605C11.1072 13.8605 11.0449 13.8605 10.9949 13.8676C10.8344 13.89 10.6856 13.9642 10.571 14.0787C10.4565 14.1933 10.3823 14.3421 10.3599 14.5026C10.3528 14.5535 10.3528 14.6149 10.3528 14.7369C10.3528 14.8588 10.3528 14.9202 10.3599 14.9711C10.3823 15.1316 10.4565 15.2804 10.571 15.395C10.6856 15.5096 10.8344 15.5837 10.9949 15.6062C11.0458 15.6132 11.1072 15.6132 11.2292 15.6132C11.3511 15.6132 11.4125 15.6132 11.4634 15.6062C11.6239 15.5837 11.7727 15.5096 11.8873 15.395C12.0019 15.2804 12.076 15.1316 12.0985 14.9711C12.1055 14.9202 12.1055 14.8588 12.1055 14.7369Z" fill="black"/>
</svg>
