<svg width="23" height="23" viewBox="0 0 23 23" fill="none" xmlns="http://www.w3.org/2000/svg">
<rect width="22.4561" height="22.4561" rx="5.61404" transform="matrix(-1 0 0 1 22.4561 0)" fill="black"/>
<path fill-rule="evenodd" clip-rule="evenodd" d="M7.66084 6.43276C7.88172 6.13825 8.22837 5.96492 8.59651 5.96492H13.8597C14.2278 5.96492 14.5745 6.13825 14.7953 6.43276L16.3743 8.53802C16.4502 8.63925 16.4912 8.76236 16.4912 8.8889V14.7368C16.4912 15.7058 15.7058 16.4912 14.7369 16.4912H7.71932C6.75039 16.4912 5.96493 15.7058 5.96493 14.7368V8.8889C5.96493 8.76236 6.00597 8.63925 6.08189 8.53802L7.66084 6.43276ZM14.0351 7.36843C13.9247 7.22117 13.7513 7.13451 13.5673 7.13451H8.88891C8.70484 7.13451 8.53151 7.22117 8.42107 7.36843L7.71932 8.3041H14.7369L14.0351 7.36843ZM15.3217 9.47369H7.13452V14.7368C7.13452 15.0598 7.39634 15.3216 7.71932 15.3216H14.7369C15.0598 15.3216 15.3217 15.0598 15.3217 14.7368V9.47369ZM11.2281 10.0585C11.5511 10.0585 11.8129 10.3203 11.8129 10.6433V12.7402L12.2766 12.2766C12.5049 12.0482 12.8752 12.0482 13.1036 12.2766C13.332 12.5049 13.332 12.8752 13.1036 13.1036L11.6416 14.5656C11.4132 14.7939 11.043 14.7939 10.8146 14.5656L9.35259 13.1036C9.12421 12.8752 9.12421 12.5049 9.35259 12.2766C9.58096 12.0482 9.95124 12.0482 10.1796 12.2766L10.6433 12.7402V10.6433C10.6433 10.3203 10.9051 10.0585 11.2281 10.0585Z" fill="white"/>
</svg>
