<svg width="30" height="30" viewBox="0 0 30 30" fill="none" xmlns="http://www.w3.org/2000/svg">
<path d="M19.8938 15.9629C20.2997 15.8179 20.5722 15.4303 20.5722 14.9994C20.5722 14.5685 20.2997 14.1809 19.8954 14.0359L18.0368 13.3658C17.1325 13.0414 16.3113 12.5209 15.632 11.8416C14.9527 11.1623 14.4322 10.341 14.1078 9.4368L13.4377 7.57815C13.366 7.38041 13.2353 7.20946 13.0632 7.08842C12.8912 6.96738 12.6862 6.90208 12.4758 6.90136C12.0458 6.90136 11.6582 7.17308 11.5115 7.57815L10.8422 9.4368C10.5179 10.3412 9.9973 11.1626 9.31783 11.8419C8.63836 12.5212 7.81687 13.0417 6.91239 13.3658L5.0554 14.0359C4.6495 14.1818 4.37695 14.5685 4.37695 14.9994C4.37695 15.4303 4.6495 15.8171 5.05374 15.9629L6.91239 16.633C7.81669 16.9573 8.63798 17.4778 9.3173 18.1571C9.99661 18.8364 10.5171 19.6577 10.8414 20.562L11.5115 22.4215C11.6574 22.8258 12.0449 23.0975 12.475 23.0975C12.9051 23.0975 13.2926 22.8249 13.4377 22.4207L14.1078 20.562C14.4322 19.6578 14.9527 18.8365 15.632 18.1572C16.3113 17.4779 17.1325 16.9574 18.0368 16.633L19.8938 15.9629ZM17.0333 7.88403L17.9743 8.22326C18.3752 8.3671 18.7393 8.59789 19.0404 8.89906C19.3416 9.20023 19.5724 9.56432 19.7162 9.96522L20.0546 10.9054C20.1872 11.2738 20.5389 11.5213 20.9298 11.5213C21.3207 11.5213 21.6732 11.2738 21.8049 10.9062L22.1442 9.96522C22.2878 9.56424 22.5186 9.20006 22.8198 8.89887C23.121 8.59768 23.4851 8.36695 23.8861 8.22326L24.8279 7.88403C25.1938 7.75151 25.4414 7.40062 25.4422 7.01138C25.4431 6.62215 25.198 6.26959 24.8279 6.13457L23.8861 5.79534C23.4853 5.6514 23.1212 5.42057 22.8201 5.11942C22.5189 4.81826 22.2881 4.45422 22.1442 4.05338L21.8049 3.11238C21.7395 2.93292 21.6205 2.77792 21.4641 2.66839C21.3076 2.55887 21.1212 2.50012 20.9302 2.50012C20.7392 2.50012 20.5528 2.55887 20.3963 2.66839C20.2399 2.77792 20.1209 2.93292 20.0555 3.11238L19.7162 4.05338C19.5724 4.45427 19.3416 4.81837 19.0404 5.11954C18.7393 5.42071 18.3752 5.6515 17.9743 5.79534L17.0308 6.1354C16.6641 6.26876 16.4173 6.62132 16.4182 7.01138C16.419 7.40145 16.6666 7.75234 17.0333 7.88403ZM24.8271 22.1148L23.8861 21.7756C23.4853 21.6316 23.1212 21.4008 22.8201 21.0996C22.5189 20.7985 22.2881 20.4344 22.1442 20.0336L21.8049 19.0926C21.7393 18.9132 21.6202 18.7584 21.4637 18.6489C21.3071 18.5395 21.1208 18.4808 20.9298 18.4808C20.7388 18.4808 20.5524 18.5395 20.3959 18.6489C20.2394 18.7584 20.1202 18.9132 20.0546 19.0926L19.7154 20.0336C19.5717 20.4346 19.341 20.7988 19.0398 21.1C18.7386 21.4011 18.3744 21.6319 17.9734 21.7756L17.0333 22.114C16.6657 22.2457 16.4182 22.5974 16.4173 22.9874C16.4165 23.3775 16.6624 23.7301 17.0325 23.8643L17.9734 24.2035C18.3745 24.3471 18.7387 24.5778 19.0399 24.879C19.3411 25.1802 19.5718 25.5444 19.7154 25.9454L20.0538 26.8856C20.119 27.0656 20.238 27.2211 20.3947 27.3311C20.5514 27.441 20.7381 27.5 20.9295 27.5001C21.1209 27.5002 21.3077 27.4414 21.4645 27.3316C21.6212 27.2218 21.7404 27.0663 21.8058 26.8864L22.145 25.9454C22.2889 25.5446 22.5198 25.1806 22.8209 24.8794C23.1221 24.5783 23.4861 24.3474 23.887 24.2035L24.8321 23.8634C25.198 23.7292 25.4439 23.3775 25.4431 22.9874C25.4422 22.5974 25.1938 22.2473 24.8271 22.1148Z" fill="#90909B"/>
</svg>
