<svg width="24" height="24" viewBox="0 0 24 24" fill="none" xmlns="http://www.w3.org/2000/svg">
<path d="M5 21C4.45 21 3.97917 20.8042 3.5875 20.4125C3.19583 20.0208 3 19.55 3 19V5C3 4.45 3.19583 3.97917 3.5875 3.5875C3.97917 3.19583 4.45 3 5 3H19C19.55 3 20.0208 3.19583 20.4125 3.5875C20.8042 3.97917 21 4.45 21 5V19C21 19.55 20.8042 20.0208 20.4125 20.4125C20.0208 20.8042 19.55 21 19 21H5ZM5 18.0643C5 18.5811 5.41891 19 5.93567 19H18.0643C18.5811 19 19 18.5811 19 18.0643V15H16C15.5 15.6333 14.9042 16.125 14.2125 16.475C13.5208 16.825 12.7833 17 12 17C11.2167 17 10.4792 16.825 9.7875 16.475C9.09583 16.125 8.5 15.6333 8 15H5V18.0643ZM12 15C12.5333 15 13.025 14.8625 13.475 14.5875C13.925 14.3125 14.2917 13.95 14.575 13.5C14.675 13.35 14.8 13.2292 14.95 13.1375C15.1 13.0458 15.2667 13 15.45 13H19V5.93567C19 5.41892 18.5811 5 18.0643 5H5.93567C5.41892 5 5 5.41891 5 5.93567V13H8.55C8.73333 13 8.9 13.0458 9.05 13.1375C9.2 13.2292 9.325 13.35 9.425 13.5C9.70833 13.95 10.075 14.3125 10.525 14.5875C10.975 14.8625 11.4667 15 12 15Z" fill="white" fill-opacity="0.6"/>
</svg>
