<svg width="30" height="30" viewBox="0 0 30 30" fill="none" xmlns="http://www.w3.org/2000/svg">
<path fill-rule="evenodd" clip-rule="evenodd" d="M11.2485 6.25C11.2485 4.86929 12.3678 3.75 13.7485 3.75H16.2485C17.6292 3.75 18.7485 4.86929 18.7485 6.25V8.75C18.7485 9.87346 18.0075 10.8238 16.9875 11.139C16.5918 11.2613 16.2485 11.5858 16.2485 12V13C16.2485 13.4142 16.5843 13.75 16.9985 13.75H21.2485C22.6292 13.75 23.7485 14.8693 23.7485 16.25V18.75C25.1292 18.75 26.2485 19.8693 26.2485 21.25V23.75C26.2485 25.1307 25.1292 26.25 23.7485 26.25H21.2485C19.8678 26.25 18.7485 25.1307 18.7485 23.75V21.25C18.7485 19.8693 19.8678 18.75 21.2485 18.75V17C21.2485 16.5858 20.9127 16.25 20.4985 16.25H9.49854C9.08432 16.25 8.74854 16.5858 8.74854 17V18.75C10.1292 18.75 11.2485 19.8693 11.2485 21.25V23.75C11.2485 25.1307 10.1292 26.25 8.74854 26.25H6.24854C4.86782 26.25 3.74854 25.1307 3.74854 23.75V21.25C3.74854 19.8693 4.86782 18.75 6.24854 18.75V16.25C6.24854 14.8693 7.36782 13.75 8.74854 13.75H12.9985C13.4127 13.75 13.7485 13.4142 13.7485 13V12C13.7485 11.5858 13.4053 11.2613 13.0095 11.139C11.9896 10.8238 11.2485 9.87346 11.2485 8.75V6.25ZM16.2485 7C16.2485 6.58579 15.9127 6.25 15.4985 6.25H14.4985C14.0843 6.25 13.7485 6.58579 13.7485 7V8C13.7485 8.41421 14.0843 8.75 14.4985 8.75H15.4985C15.9127 8.75 16.2485 8.41421 16.2485 8V7ZM6.99854 21.25C6.58432 21.25 6.24854 21.5858 6.24854 22V23C6.24854 23.4142 6.58432 23.75 6.99854 23.75H7.99854C8.41275 23.75 8.74854 23.4142 8.74854 23V22C8.74854 21.5858 8.41275 21.25 7.99854 21.25H6.99854ZM21.9985 21.25C21.5843 21.25 21.2485 21.5858 21.2485 22V23C21.2485 23.4142 21.5843 23.75 21.9985 23.75H22.9985C23.4127 23.75 23.7485 23.4142 23.7485 23V22C23.7485 21.5858 23.4127 21.25 22.9985 21.25H21.9985Z" fill="white" fill-opacity="0.6"/>
</svg>
